<?xml version="1.0" encoding="iso-8859-1"?>
<!-- Uploaded to: SVG Repo, www.svgrepo.com, Generator: SVG Repo Mixer Tools -->
<svg height="800px" width="800px" version="1.1" id="Layer_1" xmlns="http://www.w3.org/2000/svg" xmlns:xlink="http://www.w3.org/1999/xlink" 
	 viewBox="0 0 508 508" style="fill:#fff" xml:space="preserve">
<path style="fill:#7D8B95;" d="M64,57.8l17.2,38h3.2h20.8L84.8,50.6c-7.2-16-19.2-26.8-42.4-26.8H6v20h35.6C56.8,43.8,60,49,64,57.8
	z"/>
<path style="fill:#ff6432;" d="M196.8,331.8h10.4h21.6h247.6c8.8,0,17.6-6.4,17.6-15.2V119.8H90l84.8,196.4
	C178,324.2,188,331.8,196.8,331.8z"/>
<g>
	<path style="fill:#1e0c00;" d="M392,296.6c5.6,0,10-4.4,10-9.6V152.6c0-5.6-4.4-10-10-10s-10,4.4-10,10V287
		C382,292.2,386.4,296.6,392,296.6z"/>
	<path style="fill:#1e0c00;" d="M448,296.6c5.6,0,10-4.4,10-9.6V152.6c0-5.6-4.4-10-10-10c-5.6,0-10,4.4-10,10V287
		C438,292.2,442.4,296.6,448,296.6z"/>
	<path style="fill:#1e0c00;" d="M336,296.6c5.6,0,10-4.4,10-9.6V152.6c0-5.6-4.4-10-10-10s-10,4.4-10,10V287
		C326,292.2,330.4,296.6,336,296.6z"/>
	<path style="fill:#1e0c00;" d="M276,296.6c5.6,0,10-4.4,10-9.6V152.6c0-5.6-4.4-10-10-10s-10,4.4-10,10V287
		C266,292.2,270.4,296.6,276,296.6z"/>
	<path style="fill:#1e0c00;" d="M224,296.6c5.6,0,10-4.4,10-9.6V152.6c0-5.6-4.4-10-10-10s-10,4.4-10,10V287
		C214,292.2,218.4,296.6,224,296.6z"/>
	<path style="fill:#1e0c00;" d="M178,152.6c0-5.6-2.4-10-8-10s-8,4.4-8,10v43.6c0,5.6,2.4,10,8,10s8-4.4,8-10V152.6z"/>
</g>
<g>
	<path style="fill:#7D8B95;" d="M172,395.8c-24,0-43.2,19.2-43.2,43.2s19.2,43.2,43.2,43.2s43.2-19.2,43.2-43.2S196,395.8,172,395.8
		z"/>
	<path style="fill:#7D8B95;" d="M460.8,482.2c24,0,43.2-19.2,43.2-43.2s-19.2-43.2-43.2-43.2S417.6,415,417.6,439
		S436.8,482.2,460.8,482.2z"/>
</g>
<path style="fill:#2D414E;" d="M81.2,99.8L81.2,99.8c-4.8,0-7.2,6.8-7.2,11.2v4c0,4.4,2.8,4.8,7.2,4.8H90h402.4c4.4,0,6-0.4,6-4.8
	v-4c0-4.4-1.6-11.2-6-11.2H105.6H84.8H81.2z"/>
<circle style="fill:#DF5C4E;" cx="316.4" cy="284.6" r="110.4"/>
<path d="M85.2,100.6c-1.6,0-2.8-0.8-3.6-2.4L64.4,59.8c-3.2-6.8-4.8-10-18.8-10H4c-2.4,0-4-1.6-4-4v-20c0-2.4,1.6-4,4-4h42.4
	c22.8,0,37.6,8.8,46,27.6l20.4,44c0.8,2,0,4.4-2,5.2c-2,0.8-4.4,0-5.2-2l-20.4-44C78,36.2,66.4,29.4,46.4,29.4H8v12h37.6
	c16,0,20.8,4.4,26,14.8l17.2,38.4c0.8,2,0,4.4-2,5.2C86.4,100.6,86,100.6,85.2,100.6z"/>
<path d="M480.4,333.8H422c-2.4,0-4-1.6-4-4s1.6-4,4-4h58.4c5.2,0,7.6-10,7.6-17.2V119.8c0-2.4,1.6-4,4-4s4,1.6,4,4v188.8
	C496,321,491.2,333.8,480.4,333.8z"/>
<path d="M210,333.8h-9.2c-10.8,0-22.4-9.6-26-18.4l-84-194c-0.8-2,0-4.4,2-5.2c2-0.8,4.4,0,5.2,2l84,194c3.2,6.8,12,13.6,18.8,13.6
	h9.2c2.4,0,4,1.6,4,4S212.4,333.8,210,333.8z"/>
<path d="M172,486.2c-26,0-47.2-21.2-47.2-47.2s21.2-47.2,47.2-47.2s47.2,21.2,47.2,47.2C219.2,465,198,486.2,172,486.2z M172,399.8
	c-21.6,0-39.2,17.6-39.2,39.2s17.6,39.2,39.2,39.2s39.2-17.6,39.2-39.2S193.6,399.8,172,399.8z"/>
<path d="M172,466.6c-15.2,0-27.6-12.4-27.6-27.6s12.4-27.6,27.6-27.6c2.4,0,4,1.6,4,4s-1.6,4-4,4c-10.8,0-19.6,8.8-19.6,19.6
	c0,10.8,8.8,19.6,19.6,19.6s19.6-8.8,19.6-19.6c0-2.4,1.6-4,4-4s4,1.6,4,4C199.6,454.2,187.2,466.6,172,466.6z"/>
<path d="M460.8,486.2c-26,0-47.2-21.2-47.2-47.2s21.2-47.2,47.2-47.2S508,413,508,439C508,465,486.8,486.2,460.8,486.2z
	 M460.8,399.8c-21.6,0-39.2,17.6-39.2,39.2s17.6,39.2,39.2,39.2S500,460.6,500,439S482.4,399.8,460.8,399.8z"/>
<path d="M460.8,466.6c-15.2,0-27.6-12.4-27.6-27.6s12.4-27.6,27.6-27.6c2.4,0,4,1.6,4,4s-1.6,4-4,4c-10.8,0-19.6,8.8-19.6,19.6
	c0,10.8,8.8,19.6,19.6,19.6c10.8,0,19.6-8.8,19.6-19.6c0-2.4,1.6-4,4-4s4,1.6,4,4C488,454.2,476,466.6,460.8,466.6z"/>
<path d="M418,453.8H214c-2.4,0-4-1.6-4-4s1.6-4,4-4h204c2.4,0,4,1.6,4,4S420.4,453.8,418,453.8z"/>
<path d="M418,433.8H214c-2.4,0-4-1.6-4-4s1.6-4,4-4h204c2.4,0,4,1.6,4,4S420.4,433.8,418,433.8z"/>
<path d="M180.8,399c-0.4,0-1.2,0-1.6-0.4c-2-0.8-2.8-3.2-2-5.2l30.4-70.4c0.8-2,3.2-2.8,5.2-2s2.8,3.2,2,5.2l-30.4,70.4
	C183.6,398.2,182.4,399,180.8,399z"/>
<path d="M198.8,407.4c-0.4,0-1.2,0-1.6-0.4c-2-0.8-2.8-3.2-2-5.2l24.8-58c0.8-2,3.2-2.8,5.2-2s2.8,3.2,2,5.2l-24.8,58
	C201.6,406.2,200.4,407.4,198.8,407.4z"/>
<path d="M492,121.8H80c-6.4,0-12-5.2-12-12v-4c0-6.4,5.2-12,12-12h412c6.4,0,12,5.2,12,12v4C504,116.6,498.8,121.8,492,121.8z
	 M80,101.8c-2,0-4,1.6-4,4v4c0,2,1.6,4,4,4h412c2,0,4-1.6,4-4v-4c0-2-1.6-4-4-4H80z"/>
<path d="M316.4,399.4C253.2,399.4,202,348.2,202,285s51.2-114.4,114.4-114.4S430.8,221.8,430.8,285S379.6,399.4,316.4,399.4z
	 M316.4,178.2c-58.8,0-106.4,47.6-106.4,106.4S257.6,391,316.4,391c58.8,0,106.4-47.6,106.4-106.4
	C422.8,226.2,375.2,178.2,316.4,178.2z"/>
<path d="M354.8,329.4c-1.2,0-2-0.4-2.8-1.2L276.8,253c-1.6-1.6-1.6-4,0-5.6s4-1.6,5.6,0l75.2,75.2c1.6,1.6,1.6,4,0,5.6
	C356.8,329,355.6,329.4,354.8,329.4z"/>
<path d="M279.6,329.4c-1.2,0-2-0.4-2.8-1.2c-1.6-1.6-1.6-4,0-5.6l75.2-75.2c1.6-1.6,4-1.6,5.6,0s1.6,4,0,5.6l-75.2,75.2
	C281.6,329,280.4,329.4,279.6,329.4z"/>
<path d="M264,187.8c-2.4,0-4-1.6-4-4v-31.6c0-7.6,6.4-14,14-14s14,6,14,14v23.6c0,2.4-1.6,4-4,4s-4-1.6-4-4v-23.6c0-3.2-2.8-6-6-6
	s-6,2.8-6,6v31.6C268,186.2,266.4,187.8,264,187.8z"/>
<path d="M212,247.8c-2.4,0-4-1.6-4-4v-91.6c0-7.6,6.4-14,14-14s14,6,14,14v59.6c0,2.4-1.6,4-4,4s-4-1.6-4-4v-59.6c0-3.2-2.8-6-6-6
	s-6,2.8-6,6v91.6C216,246.2,214.4,247.8,212,247.8z"/>
<path d="M170,212.6c-7.6,0-14-6-14-14v-46.4c0-7.6,6.4-14,14-14s14,6,14,14v46.4C184,206.6,177.6,212.6,170,212.6z M170,146.6
	c-3.2,0-6,2.8-6,6V199c0,3.2,2.8,6,6,6s6-2.8,6-6v-46.4C176,149.4,173.2,146.6,170,146.6z"/>
<path d="M344,179.8c-2.4,0-4-1.6-4-4v-23.6c0-3.2-2.8-6-6-6s-6,2.8-6,6v19.6c0,2.4-1.6,4-4,4s-4-1.6-4-4v-19.6c0-7.6,6.4-14,14-14
	s14,6,14,14v23.6C348,178.2,346.4,179.8,344,179.8z"/>
<path d="M400,215.8c-2.4,0-4-1.6-4-4v-59.6c0-3.2-2.8-6-6-6s-6,2.8-6,6v39.6c0,2.4-1.6,4-4,4s-4-1.6-4-4v-39.6c0-7.6,6.4-14,14-14
	s14,6,14,14v59.6C404,214.2,402.4,215.8,400,215.8z"/>
<path d="M446,300.6c-7.6,0-14-6-14-14V152.2c0-7.6,6.4-14,14-14s14,6,14,14v134.4C460,294.6,453.6,300.6,446,300.6z M446,146.6
	c-3.2,0-6,2.8-6,6V287c0,3.2,2.8,6,6,6s6-2.8,6-6V152.6C452,149.4,449.2,146.6,446,146.6z"/>
</svg>