<svg width="216" height="70" viewBox="0 0 216 70" fill="none" xmlns="http://www.w3.org/2000/svg">
<path d="M13.8699 69.9963C13.3118 69.9963 12.7672 69.9892 12.2135 69.9768C11.0664 69.9618 9.92194 69.8621 8.7896 69.6783C7.73374 69.4966 6.7109 69.1587 5.75481 68.6757C4.80749 68.1966 3.94346 67.5685 3.19582 66.8153C2.43735 66.071 1.80589 65.2078 1.32647 64.2598C0.841757 63.3056 0.506309 62.2828 0.331809 61.2271C0.143363 60.0928 0.0414063 58.9457 0.0268173 57.7959C0.0165241 57.4539 0.00341057 56.4055 0.000561907 56.1716C0.000177757 56.1401 0 56.1092 0 56.0777V13.9029C0 13.8687 0.000212585 13.835 0.000660031 13.8009C0.00380148 13.5613 0.0174769 12.5419 0.0269089 12.2147C0.0408778 11.0667 0.142242 9.92146 0.330124 8.78885C0.504946 7.73025 0.840653 6.70455 1.32562 5.74726C1.80329 4.79991 2.43124 3.93601 3.18514 3.18905C3.93819 2.435 4.80498 1.80363 5.75392 1.31796C6.70781 0.836467 7.72871 0.500922 8.78243 0.322569C9.9185 0.136948 11.0669 0.0365923 12.218 0.022344L13.8708 0H202.12L203.793 0.0232407C204.933 0.036781 206.071 0.136241 207.197 0.320775C208.261 0.501366 209.293 0.839253 210.258 1.32332C212.159 2.30208 213.706 3.85055 214.681 5.75172C215.159 6.70241 215.489 7.71974 215.662 8.7692C215.852 9.9111 215.958 11.0653 215.98 12.2227C215.986 12.741 215.986 13.2977 215.986 13.8517C216 14.5379 216 15.1911 216 15.8496V54.1484C216 54.8133 216 55.462 215.986 56.116C215.986 56.7111 215.986 57.2563 215.978 57.8173C215.957 58.9541 215.852 60.0877 215.665 61.2092C215.494 62.2725 215.161 63.3033 214.676 64.2652C214.193 65.203 213.566 66.0587 212.816 66.801C212.068 67.5582 211.202 68.1901 210.252 68.6722C209.29 69.1589 208.26 69.4981 207.197 69.6783C206.065 69.863 204.92 69.9628 203.773 69.9768C203.237 69.9892 202.675 69.9963 202.129 69.9963L200.144 70L13.8699 69.9963Z" fill="white"/>
<path d="M44.0975 34.0369C44.1173 32.4865 44.5265 30.9663 45.2868 29.6179C46.0471 28.2694 47.134 27.1365 48.4462 26.3244C47.6126 25.126 46.5128 24.1398 45.2343 23.4441C43.9558 22.7483 42.5338 22.3623 41.0811 22.3165C37.9823 21.9891 34.9782 24.183 33.3991 24.183C31.7894 24.183 29.3582 22.349 26.7401 22.4032C25.0467 22.4583 23.3963 22.954 21.9498 23.842C20.5033 24.73 19.3099 25.98 18.486 27.4703C14.9171 33.6899 17.5792 42.8308 20.9979 47.8583C22.7084 50.3202 24.7074 53.0701 27.3231 52.9726C29.8827 52.8657 30.8387 51.3296 33.9284 51.3296C36.9893 51.3296 37.8862 52.9726 40.555 52.9106C43.3016 52.8657 45.0321 50.4378 46.6825 47.9526C47.9115 46.1985 48.8571 44.2598 49.4845 42.2083C47.8888 41.529 46.5271 40.3918 45.5691 38.9387C44.6112 37.4856 44.0994 35.7808 44.0975 34.0369V34.0369Z" fill="#0A0A0A"/>
<path d="M39.0565 19.0102C40.554 17.2008 41.2918 14.8752 41.1131 12.5271C38.8252 12.769 36.7118 13.8695 35.194 15.6095C34.4519 16.4595 33.8836 17.4484 33.5214 18.5196C33.1593 19.5909 33.0105 20.7234 33.0835 21.8526C34.2279 21.8644 35.36 21.6148 36.3946 21.1224C37.4292 20.6301 38.3394 19.9079 39.0565 19.0102Z" fill="#0A0A0A"/>
<path d="M76.4527 46.7405H67.718L65.6203 52.9751H61.9206L70.1941 29.9087H74.0379L82.3114 52.9751H78.5486L76.4527 46.7405ZM68.6226 43.8636H75.5464L72.1332 33.7453H72.0377L68.6226 43.8636Z" fill="#0A0A0A"/>
<path d="M100.179 44.5676C100.179 49.7937 97.4002 53.1513 93.2067 53.1513C92.1444 53.2072 91.088 52.9609 90.1583 52.4406C89.2286 51.9202 88.4633 51.1468 87.95 50.209H87.8707V58.5387H84.4413V36.1581H87.7608V38.9552H87.8239C88.3608 38.0219 89.139 37.2525 90.0758 36.729C91.0125 36.2055 92.0728 35.9473 93.1437 35.9821C97.3839 35.9821 100.179 39.3561 100.179 44.5676ZM96.6541 44.5676C96.6541 41.1628 94.9061 38.9244 92.239 38.9244C89.6187 38.9244 87.8563 41.21 87.8563 44.5676C87.8563 47.9561 89.6187 50.2254 92.239 50.2254C94.9061 50.2254 96.6541 48.0033 96.6541 44.5676Z" fill="#0A0A0A"/>
<path d="M118.568 44.5669C118.568 49.7929 115.789 53.1505 111.595 53.1505C110.533 53.2065 109.476 52.9602 108.547 52.4398C107.617 51.9194 106.852 51.1461 106.338 50.2083H106.259V58.538H102.83V36.1573H106.149V38.9544H106.212C106.749 38.0211 107.527 37.2518 108.464 36.7282C109.401 36.2047 110.461 35.9466 111.532 35.9814C115.772 35.9814 118.568 39.3553 118.568 44.5669ZM115.043 44.5669C115.043 41.1621 113.295 38.9236 110.627 38.9236C108.007 38.9236 106.245 41.2092 106.245 44.5669C106.245 47.9554 108.007 50.2246 110.627 50.2246C113.295 50.2246 115.043 48.0025 115.043 44.5669H115.043Z" fill="#0A0A0A"/>
<path d="M130.721 46.5491C130.975 48.8365 133.183 50.3383 136.199 50.3383C139.09 50.3383 141.17 48.8364 141.17 46.7739C141.17 44.9835 139.915 43.9115 136.946 43.1768L133.976 42.4567C129.768 41.4336 127.814 39.4527 127.814 36.2384C127.814 32.2585 131.26 29.5249 136.153 29.5249C140.995 29.5249 144.314 32.2585 144.426 36.2384H140.964C140.757 33.9365 138.866 32.547 136.104 32.547C133.341 32.547 131.451 33.9528 131.451 35.999C131.451 37.6297 132.658 38.5893 135.612 39.3239L138.137 39.9479C142.838 41.0671 144.792 42.9682 144.792 46.3421C144.792 50.6575 141.377 53.3603 135.945 53.3603C130.863 53.3603 127.432 50.721 127.211 46.5489L130.721 46.5491Z" fill="#0A0A0A"/>
<path d="M152.194 32.1782V36.1581H155.371V38.8917H152.194V48.1629C152.194 49.6032 152.83 50.2743 154.227 50.2743C154.604 50.2677 154.98 50.241 155.355 50.1945V52.9118C154.727 53.0299 154.089 53.0834 153.45 53.0714C150.067 53.0714 148.748 51.7926 148.748 48.531V38.8917H146.318V36.1581H148.748V32.1782H152.194Z" fill="#0A0A0A"/>
<path d="M157.21 44.568C157.21 39.2767 160.306 35.9517 165.134 35.9517C169.978 35.9517 173.06 39.2766 173.06 44.568C173.06 49.8738 169.994 53.1843 165.134 53.1843C160.276 53.1843 157.21 49.8738 157.21 44.568ZM169.565 44.568C169.565 40.9382 167.913 38.796 165.134 38.796C162.355 38.796 160.704 40.9546 160.704 44.568C160.704 48.2122 162.355 50.3382 165.134 50.3382C167.913 50.3382 169.565 48.2122 169.565 44.568H169.565Z" fill="#0A0A0A"/>
<path d="M175.887 36.1579H179.158V39.0203H179.238C179.459 38.1263 179.979 37.3363 180.711 36.783C181.443 36.2296 182.342 35.9468 183.257 35.9819C183.652 35.9805 184.046 36.0237 184.432 36.1107V39.3396C183.933 39.1861 183.412 39.1157 182.891 39.131C182.393 39.1106 181.896 39.1991 181.435 39.3902C180.974 39.5813 180.559 39.8706 180.22 40.2381C179.88 40.6057 179.624 41.0429 179.468 41.5197C179.312 41.9964 179.26 42.5015 179.317 43.0002V52.9751H175.887L175.887 36.1579Z" fill="#0A0A0A"/>
<path d="M200.242 48.0363C199.781 51.0892 196.827 53.1843 193.048 53.1843C188.188 53.1843 185.171 49.9065 185.171 44.6478C185.171 39.3728 188.204 35.9517 192.904 35.9517C197.527 35.9517 200.433 39.1479 200.433 44.2469V45.4296H188.633V45.6382C188.579 46.2571 188.656 46.8806 188.859 47.4673C189.062 48.054 189.387 48.5904 189.812 49.0409C190.237 49.4915 190.753 49.8458 191.325 50.0804C191.896 50.315 192.511 50.4245 193.128 50.4017C193.938 50.4781 194.751 50.2892 195.446 49.863C196.142 49.4368 196.682 48.7961 196.986 48.0363L200.242 48.0363ZM188.649 43.017H197.002C197.033 42.4605 196.949 41.9037 196.756 41.3813C196.563 40.859 196.264 40.3824 195.88 39.9817C195.495 39.5809 195.032 39.2645 194.52 39.0523C194.008 38.8402 193.458 38.7368 192.904 38.7488C192.346 38.7454 191.792 38.8534 191.275 39.0666C190.759 39.2797 190.289 39.5938 189.893 39.9906C189.498 40.3874 189.184 40.8592 188.971 41.3786C188.757 41.8981 188.648 42.4549 188.649 43.0171V43.017Z" fill="#0A0A0A"/>
<path d="M68.1927 12.5453C68.9117 12.4934 69.6331 12.6027 70.305 12.8654C70.977 13.128 71.5826 13.5375 72.0782 14.0643C72.5738 14.5911 72.9471 15.222 73.1712 15.9116C73.3952 16.6011 73.4644 17.3321 73.3737 18.0519C73.3737 21.5923 71.4725 23.6275 68.1927 23.6275H64.2155V12.5453H68.1927ZM65.9256 22.0602H68.0017C68.5154 22.0911 69.0296 22.0063 69.5067 21.812C69.9837 21.6177 70.4118 21.3188 70.7596 20.937C71.1075 20.5552 71.3663 20.1002 71.5174 19.605C71.6685 19.1098 71.7079 18.5869 71.6329 18.0745C71.7025 17.564 71.659 17.0444 71.5056 16.5528C71.3523 16.0613 71.0927 15.6099 70.7457 15.2312C70.3987 14.8524 69.9727 14.5556 69.4983 14.362C69.0239 14.1684 68.5128 14.0828 68.0017 14.1114H65.9256V22.0602Z" fill="#0A0A0A"/>
<path d="M75.3053 19.4431C75.2531 18.8935 75.3156 18.339 75.4887 17.8151C75.6619 17.2912 75.9419 16.8095 76.3109 16.4009C76.6799 15.9924 77.1296 15.6659 77.6313 15.4425C78.1329 15.2192 78.6754 15.1038 79.224 15.1038C79.7726 15.1038 80.3151 15.2192 80.8167 15.4425C81.3184 15.6659 81.7681 15.9924 82.1371 16.4009C82.5061 16.8095 82.7861 17.2912 82.9593 17.8151C83.1324 18.339 83.1949 18.8935 83.1427 19.4431C83.1959 19.9933 83.1342 20.5486 82.9615 21.0733C82.7888 21.598 82.5089 22.0806 82.1398 22.49C81.7708 22.8993 81.3207 23.2265 80.8185 23.4503C80.3164 23.6742 79.7732 23.7899 79.224 23.7899C78.6748 23.7899 78.1316 23.6742 77.6295 23.4503C77.1273 23.2265 76.6772 22.8993 76.3082 22.49C75.9391 22.0806 75.6593 21.598 75.4865 21.0733C75.3138 20.5486 75.2521 19.9933 75.3053 19.4431V19.4431ZM81.4559 19.4431C81.4559 17.6303 80.6467 16.5701 79.2267 16.5701C77.8012 16.5701 76.9994 17.6303 76.9994 19.4431C76.9994 21.2705 77.8013 22.3225 79.2267 22.3225C80.6468 22.3224 81.4559 21.2632 81.4559 19.4431H81.4559Z" fill="#0A0A0A"/>
<path d="M93.5609 23.6289H91.8597L90.1423 17.4693H90.0125L88.3023 23.6289H86.6174L84.3269 15.2656H85.9902L87.4788 21.6473H87.6013L89.3097 15.2656H90.883L92.5913 21.6473H92.7211L94.2024 15.2656H95.8423L93.5609 23.6289Z" fill="#0A0A0A"/>
<path d="M97.7684 15.2646H99.3471V16.5932H99.4696C99.6775 16.116 100.028 15.716 100.473 15.4489C100.917 15.1819 101.433 15.061 101.949 15.1032C102.354 15.0726 102.76 15.134 103.137 15.2827C103.515 15.4315 103.854 15.6638 104.13 15.9626C104.407 16.2613 104.612 16.6188 104.733 17.0085C104.853 17.3982 104.885 17.8101 104.825 18.2138V23.6278H103.186V18.6283C103.186 17.2843 102.605 16.6159 101.392 16.6159C101.118 16.603 100.844 16.6501 100.589 16.7537C100.334 16.8574 100.105 17.0153 99.9165 17.2167C99.728 17.418 99.585 17.6579 99.4973 17.92C99.4096 18.1821 99.3793 18.4602 99.4083 18.7353V23.6279H97.7684L97.7684 15.2646Z" fill="#0A0A0A"/>
<path d="M107.439 12H109.079V23.628H107.439V12Z" fill="#0A0A0A"/>
<path d="M111.358 19.4447C111.306 18.8951 111.369 18.3405 111.542 17.8166C111.715 17.2927 111.995 16.811 112.364 16.4024C112.733 15.9939 113.183 15.6674 113.685 15.444C114.186 15.2206 114.729 15.1052 115.277 15.1052C115.826 15.1052 116.369 15.2206 116.87 15.444C117.372 15.6674 117.822 15.9939 118.191 16.4024C118.56 16.811 118.84 17.2927 119.013 17.8166C119.186 18.3405 119.249 18.8951 119.197 19.4447C119.25 19.9949 119.188 20.5502 119.015 21.0749C118.842 21.5997 118.563 22.0822 118.193 22.4916C117.824 22.9009 117.374 23.2281 116.872 23.4519C116.37 23.6758 115.827 23.7914 115.277 23.7914C114.728 23.7914 114.185 23.6758 113.683 23.4519C113.181 23.2281 112.731 22.9009 112.362 22.4916C111.992 22.0822 111.713 21.5997 111.54 21.0749C111.367 20.5502 111.305 19.9949 111.358 19.4447V19.4447ZM117.509 19.4447C117.509 17.6319 116.7 16.5717 115.28 16.5717C113.854 16.5717 113.052 17.6319 113.052 19.4447C113.052 21.2721 113.854 22.3241 115.28 22.3241C116.7 22.3241 117.509 21.2648 117.509 19.4447H117.509Z" fill="#0A0A0A"/>
<path d="M120.923 21.2648C120.923 19.7593 122.037 18.8914 124.014 18.7681L126.264 18.6375V17.9156C126.264 17.0323 125.684 16.5336 124.563 16.5336C123.648 16.5336 123.013 16.8718 122.831 17.4631H121.244C121.411 16.0266 122.754 15.1052 124.639 15.1052C126.722 15.1052 127.897 16.149 127.897 17.9156V23.6299H126.318V22.4546H126.189C125.925 22.8762 125.556 23.2199 125.117 23.4506C124.679 23.6813 124.187 23.7907 123.693 23.7677C123.344 23.8042 122.991 23.7668 122.658 23.6577C122.324 23.5487 122.017 23.3706 121.756 23.1347C121.495 22.8989 121.286 22.6107 121.143 22.2886C120.999 21.9665 120.924 21.6177 120.923 21.2648V21.2648ZM126.264 20.5501V19.8509L124.235 19.9815C123.091 20.0586 122.572 20.4504 122.572 21.1877C122.572 21.9404 123.221 22.3784 124.113 22.3784C124.374 22.405 124.638 22.3785 124.889 22.3003C125.14 22.2221 125.373 22.0939 125.574 21.9233C125.774 21.7528 125.939 21.5433 126.058 21.3074C126.176 21.0715 126.247 20.8139 126.264 20.5501V20.5501Z" fill="#0A0A0A"/>
<path d="M130.052 19.4428C130.052 16.8002 131.402 15.126 133.501 15.126C134.021 15.102 134.536 15.2272 134.987 15.487C135.439 15.7468 135.807 16.1305 136.05 16.5933H136.172V12H137.812V23.628H136.241V22.3067H136.111C135.85 22.7664 135.468 23.1453 135.008 23.4025C134.548 23.6597 134.027 23.7854 133.501 23.7659C131.388 23.766 130.052 22.0918 130.052 19.4428ZM131.746 19.4428C131.746 21.2167 132.577 22.2841 133.966 22.2841C135.349 22.2841 136.203 21.2013 136.203 19.4501C136.203 17.707 135.34 16.6088 133.966 16.6088C132.586 16.6088 131.746 17.6834 131.746 19.4428H131.746Z" fill="#0A0A0A"/>
<path d="M144.597 19.4446C144.545 18.895 144.608 18.3404 144.781 17.8165C144.954 17.2927 145.234 16.811 145.603 16.4024C145.972 15.9938 146.422 15.6674 146.923 15.444C147.425 15.2206 147.967 15.1052 148.516 15.1052C149.065 15.1052 149.607 15.2206 150.109 15.444C150.61 15.6674 151.06 15.9938 151.429 16.4024C151.798 16.811 152.078 17.2927 152.251 17.8165C152.424 18.3404 152.487 18.895 152.435 19.4446C152.488 19.9947 152.426 20.55 152.253 21.0748C152.081 21.5995 151.801 22.0821 151.432 22.4914C151.063 22.9008 150.613 23.2279 150.111 23.4518C149.608 23.6757 149.065 23.7913 148.516 23.7913C147.967 23.7913 147.424 23.6757 146.921 23.4518C146.419 23.2279 145.969 22.9008 145.6 22.4914C145.231 22.0821 144.951 21.5995 144.779 21.0748C144.606 20.55 144.544 19.9947 144.597 19.4446V19.4446ZM150.748 19.4446C150.748 17.6317 149.939 16.5716 148.519 16.5716C147.093 16.5716 146.291 17.6317 146.291 19.4446C146.291 21.272 147.093 22.3239 148.519 22.3239C149.939 22.3239 150.748 21.2647 150.748 19.4446Z" fill="#0A0A0A"/>
<path d="M154.635 15.2646H156.213V16.5932H156.336C156.544 16.116 156.894 15.716 157.339 15.4489C157.783 15.1819 158.3 15.061 158.816 15.1032C159.22 15.0726 159.626 15.134 160.003 15.2827C160.381 15.4315 160.721 15.6638 160.997 15.9626C161.273 16.2613 161.479 16.6188 161.599 17.0085C161.719 17.3982 161.751 17.8101 161.692 18.2138V23.6278H160.052V18.6283C160.052 17.2843 159.472 16.6159 158.259 16.6159C157.984 16.603 157.71 16.6501 157.455 16.7537C157.201 16.8574 156.971 17.0153 156.783 17.2167C156.594 17.418 156.451 17.6579 156.364 17.92C156.276 18.1821 156.246 18.4602 156.275 18.7353V23.6279H154.635V15.2646Z" fill="#0A0A0A"/>
<path d="M170.958 13.1814V15.3017H172.758V16.6919H170.958V20.9924C170.958 21.8684 171.317 22.252 172.133 22.252C172.342 22.2514 172.551 22.2386 172.758 22.2139V23.5888C172.464 23.6418 172.165 23.67 171.866 23.6731C170.043 23.6731 169.316 23.0274 169.316 21.415V16.6919H167.997V15.3016H169.316V13.1814H170.958Z" fill="#0A0A0A"/>
<path d="M174.999 12H176.624V16.6088H176.754C176.972 16.1271 177.332 15.7249 177.786 15.4568C178.239 15.1887 178.763 15.0678 179.288 15.1106C179.69 15.0886 180.092 15.1562 180.465 15.3085C180.838 15.4609 181.174 15.6943 181.447 15.9921C181.72 16.2899 181.925 16.6448 182.046 17.0313C182.168 17.4179 182.203 17.8267 182.149 18.2285V23.6281H180.508V18.6356C180.508 17.2998 179.89 16.6233 178.731 16.6233C178.449 16.6 178.165 16.639 177.9 16.7375C177.635 16.8361 177.394 16.9918 177.195 17.1937C176.996 17.3957 176.843 17.639 176.746 17.9067C176.65 18.1744 176.614 18.46 176.639 18.7436V23.628H174.999L174.999 12Z" fill="#0A0A0A"/>
<path d="M191.711 21.3719C191.488 22.1363 191.005 22.7974 190.347 23.2397C189.689 23.6821 188.897 23.8774 188.11 23.7915C187.563 23.806 187.019 23.7005 186.516 23.4822C186.013 23.2639 185.563 22.9381 185.198 22.5274C184.833 22.1167 184.561 21.6309 184.401 21.1037C184.241 20.5766 184.197 20.0207 184.272 19.4747C184.199 18.927 184.244 18.37 184.403 17.8413C184.563 17.3125 184.834 16.8245 185.197 16.4102C185.56 15.9959 186.008 15.665 186.509 15.4398C187.01 15.2147 187.554 15.1007 188.103 15.1054C190.415 15.1054 191.81 16.6952 191.81 19.3214V19.8973H185.942V19.9898C185.917 20.2968 185.955 20.6057 186.055 20.8968C186.155 21.1879 186.314 21.4548 186.522 21.6804C186.731 21.906 186.984 22.0853 187.265 22.2067C187.546 22.3282 187.849 22.3892 188.155 22.3858C188.548 22.4331 188.945 22.3621 189.297 22.1815C189.649 22.001 189.94 21.7191 190.132 21.3719L191.711 21.3719ZM185.942 18.6767H190.139C190.16 18.396 190.122 18.114 190.028 17.849C189.934 17.5839 189.786 17.3416 189.593 17.1375C189.401 16.9335 189.168 16.7723 188.91 16.6642C188.651 16.5562 188.374 16.5037 188.094 16.5101C187.81 16.5065 187.529 16.5601 187.266 16.6678C187.004 16.7754 186.765 16.9348 186.564 17.1368C186.364 17.3387 186.205 17.5789 186.099 17.8434C185.992 18.1079 185.939 18.3912 185.942 18.6767H185.942Z" fill="#0A0A0A"/>
</svg>
