<svg width="216" height="70" viewBox="0 0 216 70" fill="none" xmlns="http://www.w3.org/2000/svg">
<path d="M13.8699 69.9963C13.3118 69.9963 12.7672 69.9892 12.2135 69.9768C11.0664 69.9618 9.92194 69.8621 8.7896 69.6783C7.73374 69.4966 6.7109 69.1587 5.75481 68.6757C4.80749 68.1966 3.94346 67.5685 3.19582 66.8153C2.43735 66.071 1.80589 65.2078 1.32647 64.2598C0.841757 63.3056 0.506309 62.2828 0.331809 61.2271C0.143363 60.0928 0.0414063 58.9457 0.0268173 57.7959C0.0165241 57.4539 0.00341057 56.4055 0.000561907 56.1716C0.000177757 56.1401 0 56.1092 0 56.0777V13.9029C0 13.8687 0.000212585 13.835 0.000660031 13.8009C0.00380148 13.5613 0.0174769 12.5419 0.0269089 12.2147C0.0408778 11.0667 0.142242 9.92146 0.330124 8.78885C0.504946 7.73025 0.840653 6.70455 1.32562 5.74726C1.80329 4.79991 2.43124 3.93601 3.18514 3.18905C3.93819 2.435 4.80498 1.80363 5.75392 1.31796C6.70781 0.836467 7.72871 0.500922 8.78243 0.322569C9.9185 0.136948 11.0669 0.0365923 12.218 0.022344L13.8708 0H202.12L203.793 0.0232407C204.933 0.036781 206.071 0.136241 207.197 0.320775C208.261 0.501366 209.293 0.839253 210.258 1.32332C212.159 2.30208 213.706 3.85055 214.681 5.75172C215.159 6.70241 215.489 7.71974 215.662 8.7692C215.852 9.9111 215.958 11.0653 215.98 12.2227C215.986 12.741 215.986 13.2977 215.986 13.8517C216 14.5379 216 15.1911 216 15.8496V54.1484C216 54.8133 216 55.462 215.986 56.116C215.986 56.7111 215.986 57.2563 215.978 57.8173C215.957 58.9541 215.852 60.0877 215.665 61.2092C215.494 62.2725 215.161 63.3033 214.676 64.2652C214.193 65.203 213.566 66.0587 212.816 66.801C212.068 67.5582 211.202 68.1901 210.252 68.6722C209.29 69.1589 208.26 69.4981 207.197 69.6783C206.065 69.863 204.92 69.9628 203.773 69.9768C203.237 69.9892 202.675 69.9963 202.129 69.9963L200.144 70L13.8699 69.9963Z" fill="white"/>
<path d="M109.8 36.8998C106 36.8998 102.9 39.7998 102.9 43.6998C102.9 47.5998 106 50.4998 109.8 50.4998C113.6 50.4998 116.7 47.5998 116.7 43.6998C116.6 39.7998 113.6 36.8998 109.8 36.8998ZM109.8 47.8998C107.7 47.8998 105.9 46.1998 105.9 43.7998C105.9 41.2998 107.7 39.6998 109.8 39.6998C111.9 39.6998 113.7 41.3998 113.7 43.7998C113.6 46.1998 111.8 47.8998 109.8 47.8998ZM94.8 36.8998C91 36.8998 87.9 39.7998 87.9 43.6998C87.9 47.5998 91 50.4998 94.8 50.4998C98.6 50.4998 101.7 47.5998 101.7 43.6998C101.7 39.7998 98.6 36.8998 94.8 36.8998ZM94.8 47.8998C92.7 47.8998 90.9 46.1998 90.9 43.7998C90.9 41.2998 92.7 39.6998 94.8 39.6998C96.9 39.6998 98.7 41.3998 98.7 43.7998C98.7 46.1998 96.9 47.8998 94.8 47.8998ZM77 38.9998V41.8998H83.9C83.7 43.4998 83.1 44.6998 82.3 45.5998C81.3 46.5998 79.7 47.6998 76.9 47.6998C72.6 47.6998 69.3 44.2998 69.3 39.9998C69.3 35.6998 72.6 32.2998 76.9 32.2998C79.2 32.2998 80.9 33.1998 82.1 34.3998L84.1 32.3998C82.4 30.6998 80.1 29.4998 76.8 29.4998C70.9 29.4998 66 34.2998 66 40.0998C66 45.9998 70.9 50.6998 76.8 50.6998C80 50.6998 82.3 49.6998 84.2 47.6998C86.1 45.7998 86.7 43.0998 86.7 40.8998C86.7 40.1998 86.6 39.5998 86.5 39.0998H77V38.9998ZM149.9 41.2998C149.3 39.7998 147.6 36.8998 144 36.8998C140.5 36.8998 137.5 39.6998 137.5 43.6998C137.5 47.4998 140.4 50.4998 144.3 50.4998C147.4 50.4998 149.2 48.5998 150 47.4998L147.7 45.8998C146.9 46.9998 145.9 47.7998 144.3 47.7998C142.8 47.7998 141.7 47.0998 141 45.6998L150.1 41.8998L149.9 41.2998ZM140.5 43.5998C140.4 40.9998 142.5 39.5998 144.1 39.5998C145.3 39.5998 146.3 40.1998 146.6 41.0998L140.5 43.5998ZM133.1 50.1998H136.1V30.0998H133.1V50.1998ZM128.2 38.3998H128.1C127.4 37.5998 126.1 36.8998 124.5 36.8998C121.1 36.8998 117.9 39.8998 117.9 43.7998C117.9 47.5998 121 50.5998 124.5 50.5998C126.1 50.5998 127.4 49.8998 128.1 48.9998H128.2V49.9998C128.2 52.5998 126.8 53.9997 124.5 53.9997C122.7 53.9997 121.5 52.6998 121.1 51.5998L118.5 52.6998C119.3 54.4998 121.2 56.6998 124.6 56.6998C128.1 56.6998 131.1 54.5998 131.1 49.5998V37.2998H128.2V38.3998V38.3998ZM124.7 47.8998C122.6 47.8998 120.9 46.1998 120.9 43.7998C120.9 41.3998 122.6 39.5998 124.7 39.5998C126.7 39.5998 128.4 41.3998 128.4 43.7998C128.4 46.1998 126.8 47.8998 124.7 47.8998ZM163.9 30.0998H156.7V50.1998H159.7V42.5998H163.9C167.2 42.5998 170.5 40.1998 170.5 36.3998C170.5 32.4998 167.3 30.0998 163.9 30.0998ZM164 39.7998H159.7V32.8998H164C166.2 32.8998 167.5 34.7998 167.5 36.2998C167.5 37.8998 166.3 39.7998 164 39.7998ZM182.6 36.8998C180.4 36.8998 178.2 37.8998 177.2 39.9998L179.9 41.0998C180.5 39.9998 181.5 39.5998 182.6 39.5998C184.2 39.5998 185.7 40.4998 185.8 42.1998V42.3998C185.3 42.0998 184.1 41.5998 182.7 41.5998C179.8 41.5998 176.9 43.1998 176.9 46.0998C176.9 48.7998 179.3 50.4998 181.9 50.4998C183.9 50.4998 185 49.5998 185.7 48.4998H185.8V50.0998H188.7V42.3998C188.7 38.8998 186 36.8998 182.6 36.8998ZM182.2 47.8998C181.2 47.8998 179.8 47.3998 179.8 46.1998C179.8 44.5998 181.5 44.0998 183 44.0998C184.3 44.0998 184.9 44.3998 185.7 44.7998C185.5 46.5998 183.9 47.8998 182.2 47.8998ZM199.2 37.2998L195.8 45.9998H195.7L192.1 37.2998H188.9L194.3 49.4998L191.2 56.2998H194.3L202.6 37.2998H199.2V37.2998ZM172.2 50.1998H175.2V30.0998H172.2V50.1998Z" fill="#0A0A0A"/>
<path d="M17 14.0998C16.5 14.5998 16.3 15.3998 16.3 16.3998V51.8998C16.3 52.8998 16.6 53.6998 17 54.1998L17.1 54.2998L37 34.2998V34.0998V33.8998L17.1 13.9998L17 14.0998Z" fill="#5BC9F4"/>
<path d="M43.6 40.9998L37 34.3998V34.0998V33.8998L43.6 27.2998L43.7 27.3998L51.6 31.8998C53.8 33.1998 53.8 35.2998 51.6 36.4998L43.7 40.9998H43.6Z" fill="url(#paint0_linear)"/>
<path d="M43.8 40.8999L37 34.0999L17 54.0999C17.7 54.8999 19 54.9999 20.3 54.1999L43.8 40.8999Z" fill="url(#paint1_linear)"/>
<path d="M43.8 27.2998L20.3 13.9998C18.9 13.1998 17.7 13.2998 17 14.0998L37 34.0998L43.8 27.2998Z" fill="url(#paint2_linear)"/>
<path d="M73.9 15.2C73.3 14.7 72.5 14.3 71.6 14.3C69.6 14.3 68.1 15.9 68.1 17.9C68.1 19.9 69.6 21.5 71.6 21.5C73.3 21.5 74.5 20.5 74.6 18.9H72V17.8H76.1C76.1 21.1 74.3 22.7 71.6 22.7C68.9 22.7 66.8 20.5 66.8 17.9C66.8 15.2 68.9 13 71.6 13C72.8 13 74 13.5 74.8 14.2L73.9 15.2Z" fill="#0A0A0A"/>
<path d="M83.5 13.2V14.4H79.2V17.4H83V18.6H79.2V21.5H83.7V22.7H78V13.2H83.5V13.2Z" fill="#0A0A0A"/>
<path d="M91.8 13.2V14.4H88.9V22.7H87.6V14.4H84.7V13.2H91.8Z" fill="#0A0A0A"/>
<path d="M97.9 13.2V22.7H96.6V13.2H97.9Z" fill="#0A0A0A"/>
<path d="M106.6 13.2V14.4H103.7V22.7H102.4V14.4H99.5V13.2H106.6Z" fill="#0A0A0A"/>
<path d="M115.6 13.1001C118.3 13.1001 120.4 15.3001 120.4 18.0001C120.4 20.7001 118.3 22.8001 115.6 22.8001C112.9 22.8001 110.8 20.6001 110.8 18.0001C110.8 15.3001 112.9 13.1001 115.6 13.1001ZM115.6 21.6001C117.6 21.6001 119.1 20.0001 119.1 18.0001C119.1 16.0001 117.6 14.4001 115.6 14.4001C113.6 14.4001 112.1 16.0001 112.1 18.0001C112.1 20.0001 113.6 21.6001 115.6 21.6001Z" fill="#0A0A0A"/>
<path d="M128 22.7L123.7 15.6V22.7H122.4V13.2H123.7L128 20.2999V13.2H129.3V22.7H128Z" fill="#0A0A0A"/>
<defs>
<linearGradient id="paint0_linear" x1="50.1902" y1="34.1023" x2="11.3046" y2="34.1023" gradientUnits="userSpaceOnUse">
<stop stop-color="#FEE000"/>
<stop offset="0.1941" stop-color="#FCCF0B"/>
<stop offset="0.5469" stop-color="#FAB318"/>
<stop offset="0.8279" stop-color="#F9A21B"/>
<stop offset="1" stop-color="#F99B1C"/>
</linearGradient>
<linearGradient id="paint1_linear" x1="40.0989" y1="37.7902" x2="3.52529" y2="74.3638" gradientUnits="userSpaceOnUse">
<stop stop-color="#EF4547"/>
<stop offset="1" stop-color="#C6186D"/>
</linearGradient>
<linearGradient id="paint2_linear" x1="3.3623" y1="-6.32315" x2="33.2237" y2="23.5382" gradientUnits="userSpaceOnUse">
<stop stop-color="#279E6F"/>
<stop offset="0.3168" stop-color="#4DAB6D"/>
<stop offset="0.7398" stop-color="#6ABA6A"/>
<stop offset="1" stop-color="#74C169"/>
</linearGradient>
</defs>
</svg>
